# xmcd
#
# Track frame offsets: 
#        150
#        16276
#        34579
#        48800
#        59343
#        70271
#        86940
#        114890
#        135002
#        151583
#        172401
#        199751
#        216673
#        229759
#        246177
#        265810
#
# Disc length: 3724 seconds
#
# Revision: 1
# Processed by: cddbd v1.5.2PL0 Copyright (c) Steve Scherf et al.
# Submitted via: ExactAudioCopy v0.95b3
#
DISCID=d80e8a10
DTITLE=The Flirts - Physical Attraction [CD1]
DYEAR=2001
DGENRE=Disco
TTITLE0=Passion
TTITLE1=Come To Me
TTITLE2=Dancin' Madley Backwards
TTITLE3=Nice Girls Say No
TTITLE4=I Only Want To Be With You 
TTITLE5=He's A Lot Like You
TTITLE6=New Toy
TTITLE7=Calling All Boys
TTITLE8=Juke Box
TTITLE9=Danger
TTITLE10=You And Me
TTITLE11=I Wanna Wear Your Ring
TTITLE12=Big Boys Don't Cry
TTITLE13=Physical Attraction
TTITLE14=Just Another Heartache
TTITLE15=Surf's Up
EXTD=
EXTT0=
EXTT1=
EXTT2=
EXTT3=
EXTT4=
EXTT5=
EXTT6=
EXTT7=
EXTT8=
EXTT9=
EXTT10=
EXTT11=
EXTT12=
EXTT13=
EXTT14=
EXTT15=
PLAYORDER=
